<svg xmlns="http://www.w3.org/2000/svg" width="1024" height="1024" viewBox="0 0 1024 1024">
<g>
<path d="M 469.26 904.62 C460.05,907.72 456.91,908.30 447.50,908.61 C434.69,909.03 427.37,907.66 415.50,902.63 C411.10,900.76 405.88,898.72 403.90,898.09 C399.80,896.78 397.44,894.43 393.76,888.00 C392.35,885.53 389.78,881.72 388.05,879.55 C386.31,877.37 383.26,872.49 381.27,868.69 C376.57,859.75 372.98,857.34 361.38,855.34 C351.47,853.63 346.85,851.60 342.56,847.09 C340.37,844.78 338.73,843.99 336.06,843.98 C328.51,843.92 323.74,842.05 318.45,837.04 C313.80,832.64 312.75,832.13 307.41,831.60 C291.91,830.06 284.46,826.64 278.90,818.50 C277.47,816.41 274.54,813.52 272.40,812.09 C270.20,810.61 267.52,807.54 266.25,805.02 C265.01,802.58 262.24,798.76 260.09,796.54 C256.17,792.49 254.03,787.21 253.99,781.50 C253.98,779.85 252.60,774.67 250.92,770.00 C249.25,765.33 247.29,759.16 246.58,756.30 C245.63,752.48 243.97,749.65 240.35,745.69 C237.51,742.58 234.83,738.43 234.03,735.90 C230.22,723.81 225.68,719.70 216.12,719.66 C213.03,719.64 208.35,720.39 205.72,721.32 C199.90,723.36 192.10,723.49 187.61,721.61 C185.78,720.85 181.56,718.03 178.23,715.36 C174.91,712.69 169.55,708.94 166.34,707.03 C156.06,700.93 153.08,698.00 149.48,690.52 C147.61,686.65 144.50,681.93 142.55,680.04 C140.60,678.15 139.00,676.00 139.00,675.26 C139.00,674.52 137.55,671.13 135.78,667.72 C132.88,662.17 132.52,660.50 132.21,651.51 C131.98,644.60 131.29,640.08 129.98,636.91 C126.52,628.54 125.81,623.29 127.07,615.49 C128.39,607.31 127.58,604.77 122.00,599.50 C118.30,596.01 116.54,592.86 115.63,588.07 C115.19,585.77 113.01,582.60 108.96,578.38 C101.60,570.72 98.95,564.99 97.90,554.52 C97.02,545.77 96.91,545.61 85.24,536.28 C82.51,534.10 80.67,531.52 79.55,528.28 C77.03,521.01 76.47,504.28 78.39,493.50 C79.27,488.55 80.00,482.90 80.00,480.95 C80.00,473.32 91.14,464.00 100.25,464.00 C107.38,464.00 111.93,460.59 116.52,451.82 C119.71,445.72 121.62,443.80 133.13,435.18 C146.50,425.15 150.00,419.74 150.00,409.07 C150.00,402.57 148.31,399.59 142.64,396.09 C140.77,394.93 138.52,392.25 137.48,389.97 C136.39,387.53 134.02,384.80 131.59,383.17 C125.42,379.03 122.25,371.88 120.88,359.00 C119.52,346.25 120.23,333.55 122.75,325.50 C124.47,320.00 124.51,318.96 123.22,313.00 C122.31,308.82 121.72,299.17 121.59,286.00 C121.47,274.73 120.76,257.13 120.02,246.90 C118.50,226.01 119.12,219.88 123.54,212.34 C126.88,206.64 134.91,200.69 144.85,196.56 C149.27,194.73 155.50,191.20 158.69,188.73 C161.89,186.26 167.24,183.03 170.60,181.55 C175.73,179.29 178.55,176.89 188.32,166.46 C196.22,158.03 200.95,152.05 203.08,147.78 C204.80,144.33 207.88,139.48 209.91,137.00 C211.95,134.52 214.63,129.98 215.87,126.90 C219.77,117.17 229.42,110.23 242.87,107.49 C252.19,105.59 281.73,103.76 290.31,104.56 C307.83,106.18 317.42,109.65 324.43,116.89 C329.83,122.47 335.78,124.29 348.98,124.40 C361.29,124.51 363.86,123.51 369.09,116.61 C373.32,111.02 381.99,106.44 391.00,105.03 C399.24,103.74 425.44,103.75 438.50,105.04 C444.00,105.58 454.12,106.49 461.00,107.04 C467.88,107.60 476.19,108.73 479.48,109.56 C491.43,112.58 500.07,119.78 506.40,132.00 C508.54,136.12 512.44,141.80 515.06,144.60 C518.13,147.88 520.25,151.27 521.01,154.10 C521.67,156.52 522.87,160.41 523.68,162.74 C526.20,169.97 533.29,174.00 543.49,174.00 C558.76,174.00 567.46,178.07 569.78,186.29 C570.81,189.93 571.85,191.38 574.31,192.64 C576.06,193.54 580.52,197.12 584.22,200.59 C593.69,209.49 594.19,209.62 632.31,212.83 C637.68,213.28 646.28,213.09 654.31,212.34 C661.57,211.66 674.92,210.82 684.00,210.47 C698.68,209.92 701.27,210.07 707.44,211.84 L 714.39 213.84 L 719.32 211.34 C722.03,209.96 728.83,207.80 734.43,206.54 C740.03,205.27 746.45,203.30 748.70,202.15 C754.73,199.08 759.54,192.88 761.89,185.15 C767.46,166.85 784.56,157.00 810.76,157.00 C821.74,157.00 847.62,160.72 860.13,164.09 C869.38,166.59 878.26,172.05 881.91,177.49 C884.80,181.81 887.00,189.78 887.00,195.97 C887.00,198.46 887.79,201.92 888.75,203.66 C889.71,205.40 891.57,208.76 892.88,211.13 C897.31,219.13 899.46,240.56 900.54,287.33 L 901.25 318.17 L 904.72 324.72 C906.63,328.32 909.04,333.71 910.07,336.70 C911.10,339.69 913.48,344.70 915.36,347.82 C919.95,355.47 922.46,360.58 924.35,366.19 C926.72,373.22 929.78,390.08 930.99,402.80 C931.66,409.86 933.09,417.18 934.78,422.30 C937.49,430.47 937.50,430.61 937.24,456.00 C937.10,470.02 936.51,484.13 935.93,487.35 C935.04,492.28 935.23,494.99 937.10,504.60 C939.27,515.67 939.30,516.81 938.27,544.74 C937.14,575.51 937.37,574.16 930.54,590.00 C925.15,602.50 924.27,603.94 918.12,610.37 C912.01,616.74 907.15,619.40 899.69,620.46 C896.54,620.91 893.81,622.09 891.81,623.88 C888.79,626.58 888.74,626.77 887.74,640.78 L 886.73 654.95 L 889.43 658.49 C890.91,660.44 894.78,663.38 898.02,665.01 C905.44,668.75 910.15,672.87 913.43,678.46 C915.32,681.69 916.98,683.16 919.75,684.06 C927.29,686.50 932.64,689.86 935.24,693.79 C939.92,700.87 940.29,704.20 939.54,733.50 C938.48,774.89 936.81,783.36 927.94,792.51 C924.60,795.95 923.67,798.00 921.33,806.89 C918.93,816.08 918.09,817.84 913.99,822.38 C911.44,825.20 907.83,829.75 905.96,832.50 C904.09,835.25 899.78,840.20 896.37,843.50 C880.74,858.64 867.81,862.02 835.29,859.46 C816.84,858.00 809.47,856.73 789.50,851.58 C784.00,850.16 778.40,849.00 777.05,849.00 C775.69,849.00 770.52,850.32 765.54,851.94 C760.57,853.55 753.20,855.40 749.16,856.04 C743.55,856.94 741.06,857.88 738.58,860.06 C734.63,863.53 726.73,867.51 722.07,868.38 C718.02,869.14 715.00,871.59 715.00,874.11 C715.00,880.88 709.39,884.52 694.32,887.51 C670.70,892.21 659.25,891.80 645.50,885.77 C633.90,880.68 614.59,879.08 607.36,882.62 C604.50,884.02 602.73,885.96 600.50,890.20 C596.33,898.11 592.79,901.45 585.11,904.69 C578.62,907.42 578.07,907.48 555.44,907.80 C528.91,908.18 524.00,907.44 510.22,900.98 C500.26,896.31 493.93,895.77 487.24,899.00 C484.96,900.10 482.41,901.00 481.56,901.00 C480.72,901.00 475.19,902.63 469.26,904.62 ZM 838.06 813.86 C849.88,815.82 858.40,814.22 864.45,808.91 C869.15,804.78 870.39,800.59 869.06,793.37 C868.48,790.21 868.00,784.71 868.00,781.13 C868.00,769.94 863.23,763.81 851.50,759.91 C844.84,757.69 831.38,758.17 825.50,760.84 C819.09,763.75 815.24,767.46 814.00,771.94 C811.36,781.44 814.32,799.59 819.36,804.86 C822.98,808.63 831.62,812.80 838.06,813.86 ZM 196.50 660.18 C201.91,662.51 211.59,662.14 215.23,659.47 C218.96,656.73 221.00,651.10 221.00,643.53 C221.00,627.56 215.16,615.12 205.38,610.23 C193.55,604.32 183.11,605.32 179.15,612.73 C177.67,615.48 177.64,636.22 179.10,643.03 C180.79,650.89 185.36,655.40 196.50,660.18 Z" fill="rgb(254,187,122)"/>
<path d="M 0.00 512.00 L 0.00 0.00 L 512.00 0.00 L 1024.00 0.00 L 1024.00 512.00 L 1024.00 1024.00 L 512.00 1024.00 L 0.00 1024.00 L 0.00 512.00 ZM 469.26 904.62 C475.19,902.63 480.72,901.00 481.56,901.00 C482.41,901.00 484.96,900.10 487.24,899.00 C493.93,895.77 500.26,896.31 510.22,900.98 C524.00,907.44 528.91,908.18 555.44,907.80 C578.07,907.48 578.62,907.42 585.11,904.69 C592.79,901.45 596.33,898.11 600.50,890.20 C602.73,885.96 604.50,884.02 607.36,882.62 C614.59,879.08 633.90,880.68 645.50,885.77 C659.25,891.80 670.70,892.21 694.32,887.51 C709.39,884.52 715.00,880.88 715.00,874.11 C715.00,871.59 718.02,869.14 722.07,868.38 C726.73,867.51 734.63,863.53 738.58,860.06 C741.06,857.88 743.55,856.94 749.16,856.04 C753.20,855.40 760.57,853.55 765.54,851.94 C770.52,850.32 775.69,849.00 777.05,849.00 C778.40,849.00 784.00,850.16 789.50,851.58 C809.47,856.73 816.84,858.00 835.29,859.46 C867.81,862.02 880.74,858.64 896.37,843.50 C899.78,840.20 904.09,835.25 905.96,832.50 C907.83,829.75 911.44,825.20 913.99,822.38 C918.09,817.84 918.93,816.08 921.33,806.89 C923.67,798.00 924.60,795.95 927.94,792.51 C936.81,783.36 938.48,774.89 939.54,733.50 C940.29,704.20 939.92,700.87 935.24,693.79 C932.64,689.86 927.29,686.50 919.75,684.06 C916.98,683.16 915.32,681.69 913.43,678.46 C910.15,672.87 905.44,668.75 898.02,665.01 C894.78,663.38 890.91,660.44 889.43,658.49 L 886.73 654.95 L 887.74 640.78 C888.74,626.77 888.79,626.58 891.81,623.88 C893.81,622.09 896.54,620.91 899.69,620.46 C907.15,619.40 912.01,616.74 918.12,610.37 C924.27,603.94 925.15,602.50 930.54,590.00 C937.37,574.16 937.14,575.51 938.27,544.74 C939.30,516.81 939.27,515.67 937.10,504.60 C935.23,494.99 935.04,492.28 935.93,487.35 C936.51,484.13 937.10,470.02 937.24,456.00 C937.50,430.61 937.49,430.47 934.78,422.30 C933.09,417.18 931.66,409.86 930.99,402.80 C929.78,390.08 926.72,373.22 924.35,366.19 C922.46,360.58 919.95,355.47 915.36,347.82 C913.48,344.70 911.10,339.69 910.07,336.70 C909.04,333.71 906.63,328.32 904.72,324.72 L 901.25 318.17 L 900.54 287.33 C899.46,240.56 897.31,219.13 892.88,211.13 C891.57,208.76 889.71,205.40 888.75,203.66 C887.79,201.92 887.00,198.46 887.00,195.97 C887.00,189.78 884.80,181.81 881.91,177.49 C878.26,172.05 869.38,166.59 860.13,164.09 C847.62,160.72 821.74,157.00 810.76,157.00 C784.56,157.00 767.46,166.85 761.89,185.15 C759.54,192.88 754.73,199.08 748.70,202.15 C746.45,203.30 740.03,205.27 734.43,206.54 C728.83,207.80 722.03,209.96 719.32,211.34 L 714.39 213.84 L 707.44 211.84 C701.27,210.07 698.68,209.92 684.00,210.47 C674.92,210.82 661.57,211.66 654.31,212.34 C646.28,213.09 637.68,213.28 632.31,212.83 C594.19,209.62 593.69,209.49 584.22,200.59 C580.52,197.12 576.06,193.54 574.31,192.64 C571.85,191.38 570.81,189.93 569.78,186.29 C567.46,178.07 558.76,174.00 543.49,174.00 C533.29,174.00 526.20,169.97 523.68,162.74 C522.87,160.41 521.67,156.52 521.01,154.10 C520.25,151.27 518.13,147.88 515.06,144.60 C512.44,141.80 508.54,136.12 506.40,132.00 C500.07,119.78 491.43,112.58 479.48,109.56 C476.19,108.73 467.88,107.60 461.00,107.04 C454.12,106.49 444.00,105.58 438.50,105.04 C425.44,103.75 399.24,103.74 391.00,105.03 C381.99,106.44 373.32,111.02 369.09,116.61 C363.86,123.51 361.29,124.51 348.98,124.40 C335.78,124.29 329.83,122.47 324.43,116.89 C317.42,109.65 307.83,106.18 290.31,104.56 C281.73,103.76 252.19,105.59 242.87,107.49 C229.42,110.23 219.77,117.17 215.87,126.90 C214.63,129.98 211.95,134.52 209.91,137.00 C207.88,139.48 204.80,144.33 203.08,147.78 C200.95,152.05 196.22,158.03 188.32,166.46 C178.55,176.89 175.73,179.29 170.60,181.55 C167.24,183.03 161.89,186.26 158.69,188.73 C155.50,191.20 149.27,194.73 144.85,196.56 C134.91,200.69 126.88,206.64 123.54,212.34 C119.12,219.88 118.50,226.01 120.02,246.90 C120.76,257.13 121.47,274.73 121.59,286.00 C121.72,299.17 122.31,308.82 123.22,313.00 C124.51,318.96 124.47,320.00 122.75,325.50 C120.23,333.55 119.52,346.25 120.88,359.00 C122.25,371.88 125.42,379.03 131.59,383.17 C134.02,384.80 136.39,387.53 137.48,389.97 C138.52,392.25 140.77,394.93 142.64,396.09 C148.31,399.59 150.00,402.57 150.00,409.07 C150.00,419.74 146.50,425.15 133.13,435.18 C121.62,443.80 119.71,445.72 116.52,451.82 C111.93,460.59 107.38,464.00 100.25,464.00 C91.14,464.00 80.00,473.32 80.00,480.95 C80.00,482.90 79.27,488.55 78.39,493.50 C76.47,504.28 77.03,521.01 79.55,528.28 C80.67,531.52 82.51,534.10 85.24,536.28 C96.91,545.61 97.02,545.77 97.90,554.52 C98.95,564.99 101.60,570.72 108.96,578.38 C113.01,582.60 115.19,585.77 115.63,588.07 C116.54,592.86 118.30,596.01 122.00,599.50 C127.58,604.77 128.39,607.31 127.07,615.49 C125.81,623.29 126.52,628.54 129.98,636.91 C131.29,640.08 131.98,644.60 132.21,651.51 C132.52,660.50 132.88,662.17 135.78,667.72 C137.55,671.13 139.00,674.52 139.00,675.26 C139.00,676.00 140.60,678.15 142.55,680.04 C144.50,681.93 147.61,686.65 149.48,690.52 C153.08,698.00 156.06,700.93 166.34,707.03 C169.55,708.94 174.91,712.69 178.23,715.36 C181.56,718.03 185.78,720.85 187.61,721.61 C192.10,723.49 199.90,723.36 205.72,721.32 C208.35,720.39 213.03,719.64 216.12,719.66 C225.68,719.70 230.22,723.81 234.03,735.90 C234.83,738.43 237.51,742.58 240.35,745.69 C243.97,749.65 245.63,752.48 246.58,756.30 C247.29,759.16 249.25,765.33 250.92,770.00 C252.60,774.67 253.98,779.85 253.99,781.50 C254.03,787.21 256.17,792.49 260.09,796.54 C262.24,798.76 265.01,802.58 266.25,805.02 C267.52,807.54 270.20,810.61 272.40,812.09 C274.54,813.52 277.47,816.41 278.90,818.50 C284.46,826.64 291.91,830.06 307.41,831.60 C312.75,832.13 313.80,832.64 318.45,837.04 C323.74,842.05 328.51,843.92 336.06,843.98 C338.73,843.99 340.37,844.78 342.56,847.09 C346.85,851.60 351.47,853.63 361.38,855.34 C372.98,857.34 376.57,859.75 381.27,868.69 C383.26,872.49 386.31,877.37 388.05,879.55 C389.78,881.72 392.35,885.53 393.76,888.00 C397.44,894.43 399.80,896.78 403.90,898.09 C405.88,898.72 411.10,900.76 415.50,902.63 C427.37,907.66 434.69,909.03 447.50,908.61 C456.91,908.30 460.05,907.72 469.26,904.62 ZM 838.06 813.86 C831.62,812.80 822.98,808.63 819.36,804.86 C814.32,799.59 811.36,781.44 814.00,771.94 C815.24,767.46 819.09,763.75 825.50,760.84 C831.38,758.17 844.84,757.69 851.50,759.91 C863.23,763.81 868.00,769.94 868.00,781.13 C868.00,784.71 868.48,790.21 869.06,793.37 C870.39,800.59 869.15,804.78 864.45,808.91 C858.40,814.22 849.88,815.82 838.06,813.86 ZM 196.50 660.18 C185.36,655.40 180.79,650.89 179.10,643.03 C177.64,636.22 177.67,615.48 179.15,612.73 C183.11,605.32 193.55,604.32 205.38,610.23 C215.16,615.12 221.00,627.56 221.00,643.53 C221.00,651.10 218.96,656.73 215.23,659.47 C211.59,662.14 201.91,662.51 196.50,660.18 Z" fill="rgb(254,254,254)"/>
</g>
</svg>